<svg width="32" height="24" viewBox="0 0 32 24" fill="none" xmlns="http://www.w3.org/2000/svg">
<path d="M26.6453 1.99448C24.6509 1.06472 22.4914 0.389899 20.242 0C20.2024 0.000563411 20.1647 0.0167338 20.137 0.0449887C19.8671 0.539861 19.5522 1.18469 19.3422 1.67956C16.9563 1.31988 14.53 1.31988 12.1441 1.67956C11.9342 1.1697 11.6192 0.539861 11.3343 0.0449887C11.3193 0.0149964 11.2743 0 11.2293 0C8.97992 0.389899 6.83548 1.06472 4.826 1.99448C4.811 1.99448 4.796 2.00948 4.78101 2.02448C0.702064 8.1279 -0.422644 14.0664 0.132212 19.9448C0.132212 19.9748 0.147208 20.0048 0.1772 20.0198C2.8765 21.9993 5.47083 23.199 8.03517 23.9938C8.08015 24.0088 8.12514 23.9938 8.14014 23.9638C8.73998 23.139 9.27984 22.2692 9.74472 21.3545C9.77471 21.2945 9.74472 21.2345 9.68474 21.2195C8.82996 20.8896 8.02017 20.4997 7.22538 20.0498C7.16539 20.0198 7.16539 19.9298 7.21038 19.8849C7.37534 19.7649 7.54029 19.6299 7.70525 19.5099C7.73524 19.48 7.78023 19.48 7.81022 19.495C12.9689 21.8493 18.5324 21.8493 23.6311 19.495C23.6611 19.48 23.7061 19.48 23.7361 19.5099C23.9011 19.6449 24.066 19.7649 24.231 19.8998C24.291 19.9448 24.291 20.0348 24.216 20.0648C23.4362 20.5297 22.6114 20.9046 21.7566 21.2345C21.6966 21.2495 21.6816 21.3245 21.6966 21.3695C22.1765 22.2842 22.7164 23.154 23.3012 23.9788C23.3462 23.9938 23.3912 24.0088 23.4362 23.9938C26.0155 23.199 28.6098 21.9993 31.3091 20.0198C31.3391 20.0048 31.3541 19.9748 31.3541 19.9448C32.014 13.1516 30.2594 7.25812 26.7053 2.02448C26.6903 2.00948 26.6753 1.99448 26.6453 1.99448ZM10.5245 16.3608C8.97992 16.3608 7.69025 14.9361 7.69025 13.1816C7.69025 11.427 8.94993 10.0024 10.5245 10.0024C12.1141 10.0024 13.3738 11.442 13.3588 13.1816C13.3588 14.9361 12.0991 16.3608 10.5245 16.3608ZM20.9768 16.3608C19.4322 16.3608 18.1425 14.9361 18.1425 13.1816C18.1425 11.427 19.4022 10.0024 20.9768 10.0024C22.5664 10.0024 23.8261 11.442 23.8111 13.1816C23.8111 14.9361 22.5664 16.3608 20.9768 16.3608Z" fill="white"/>
</svg>
