<svg width="24" height="24" viewBox="0 0 24 24" fill="none" xmlns="http://www.w3.org/2000/svg">
<path d="M22.6723 0H1.3236C0.972563 0 0.635899 0.139451 0.387675 0.387675C0.139451 0.635899 0 0.972562 0 1.3236V22.6744C0 23.0254 0.139451 23.3621 0.387675 23.6103C0.635899 23.8585 0.972563 23.998 1.3236 23.998H12.8125V14.7063H9.68878V11.0837H12.8125V8.41201C12.8125 5.31274 14.7063 3.62464 17.4716 3.62464C18.4047 3.62131 19.3374 3.6689 20.2654 3.76718V7.00696H18.3533C16.8485 7.00696 16.5573 7.7217 16.5573 8.77041V11.0837H20.1432L19.6769 14.7063H16.5573V24H22.6662C23.0171 23.9995 23.3534 23.8598 23.6015 23.6117C23.8497 23.3636 23.9893 23.0273 23.9898 22.6764V1.32564C23.9904 0.975302 23.852 0.639038 23.605 0.390549C23.3581 0.14206 23.0227 0.00161653 22.6723 0Z" fill="white"/>
</svg>
