<svg width="24" height="24" viewBox="0 0 24 24" fill="none" xmlns="http://www.w3.org/2000/svg">
<path d="M12 8.00571C9.78857 8.00571 8.00571 9.80571 8.00571 12C8.00571 14.1943 9.80571 15.9943 12 15.9943C14.1943 15.9943 15.9943 14.1943 15.9943 12C15.9943 9.80571 14.1943 8.00571 12 8.00571ZM24 12C24 10.3371 24 8.70857 23.9143 7.04571C23.8286 5.12571 23.3829 3.41143 21.9771 2.02286C20.5714 0.617143 18.8743 0.171428 16.9543 0.0857142C15.2914 -8.30208e-08 13.6629 0 12 0C10.3371 0 8.70857 -8.30208e-08 7.04571 0.0857142C5.12571 0.171428 3.41143 0.617143 2.02286 2.02286C0.617143 3.42857 0.171428 5.12571 0.0857142 7.04571C-8.30208e-08 8.70857 0 10.3371 0 12C0 13.6629 -8.30208e-08 15.2914 0.0857142 16.9543C0.171428 18.8743 0.617143 20.5886 2.02286 21.9771C3.42857 23.3829 5.12571 23.8286 7.04571 23.9143C8.70857 24 10.3371 24 12 24C13.6629 24 15.2914 24 16.9543 23.9143C18.8743 23.8286 20.5886 23.3829 21.9771 21.9771C23.3829 20.5714 23.8286 18.8743 23.9143 16.9543C24.0171 15.3086 24 13.6629 24 12ZM12 18.1543C8.58857 18.1543 5.84571 15.4114 5.84571 12C5.84571 8.58857 8.58857 5.84571 12 5.84571C15.4114 5.84571 18.1543 8.58857 18.1543 12C18.1543 15.4114 15.4114 18.1543 12 18.1543ZM18.4114 7.02857C17.6229 7.02857 16.9714 6.39429 16.9714 5.58857C16.9714 4.78286 17.6057 4.14857 18.4114 4.14857C19.2171 4.14857 19.8514 4.78286 19.8514 5.58857C19.8558 5.77635 19.8215 5.96301 19.7507 6.137C19.6799 6.31098 19.5742 6.46857 19.44 6.6C19.3086 6.73418 19.151 6.83994 18.977 6.91071C18.803 6.98149 18.6163 7.01577 18.4286 7.01143L18.4114 7.02857Z" fill="white"/>
</svg>
