<svg width="21" height="24" viewBox="0 0 21 24" fill="none" xmlns="http://www.w3.org/2000/svg">
<path fill-rule="evenodd" clip-rule="evenodd" d="M17.2961 0C18.2135 0 19.0934 0.364452 19.7421 1.01318C20.3908 1.66191 20.7553 2.54177 20.7553 3.45921V17.2961C20.7553 18.2135 20.3908 19.0934 19.7421 19.7421C19.0934 20.3908 18.2135 20.7553 17.2961 20.7553H3.45921C2.54177 20.7553 1.66191 20.3908 1.01318 19.7421C0.364452 19.0934 0 18.2135 0 17.2961V3.45921C0 2.54177 0.364452 1.66191 1.01318 1.01318C1.66191 0.364452 2.54177 0 3.45921 0H17.2961ZM5.76535 8.07149C5.45954 8.07149 5.16625 8.19298 4.95001 8.40922C4.73376 8.62546 4.61228 8.91875 4.61228 9.22456V14.9899C4.61228 15.2957 4.73376 15.589 4.95001 15.8053C5.16625 16.0215 5.45954 16.143 5.76535 16.143C6.07116 16.143 6.36445 16.0215 6.58069 15.8053C6.79694 15.589 6.91842 15.2957 6.91842 14.9899V9.22456C6.91842 8.91875 6.79694 8.62546 6.58069 8.40922C6.36445 8.19298 6.07116 8.07149 5.76535 8.07149ZM9.22456 6.91842C8.91875 6.91842 8.62546 7.0399 8.40922 7.25615C8.19298 7.47239 8.07149 7.76568 8.07149 8.07149V14.9899C8.07149 15.2957 8.19298 15.589 8.40922 15.8053C8.62546 16.0215 8.91875 16.143 9.22456 16.143C9.53037 16.143 9.82366 16.0215 10.0399 15.8053C10.2561 15.589 10.3776 15.2957 10.3776 14.9899V10.7697C10.7293 10.373 11.3231 9.90718 11.9839 9.62468C12.3678 9.46094 12.9455 9.39406 13.3468 9.5209C13.4799 9.55467 13.5985 9.63074 13.6846 9.73768C13.7446 9.81839 13.8368 9.99827 13.8368 10.3776V14.9899C13.8368 15.2957 13.9583 15.589 14.1746 15.8053C14.3908 16.0215 14.6841 16.143 14.9899 16.143C15.2957 16.143 15.589 16.0215 15.8053 15.8053C16.0215 15.589 16.143 15.2957 16.143 14.9899V10.3776C16.143 9.60507 15.947 8.91784 15.5388 8.36668C15.1632 7.86689 14.6375 7.5004 14.0386 7.32084C12.9986 6.99452 11.8466 7.17555 11.0775 7.50533C10.8313 7.61124 10.5915 7.73136 10.3592 7.86509C10.3108 7.59941 10.1708 7.35912 9.96344 7.18612C9.75609 7.01312 9.4946 6.91838 9.22456 6.91842ZM5.76535 4.61228C5.45954 4.61228 5.16625 4.73376 4.95001 4.95001C4.73376 5.16625 4.61228 5.45954 4.61228 5.76535C4.61228 6.07116 4.73376 6.36445 4.95001 6.58069C5.16625 6.79694 5.45954 6.91842 5.76535 6.91842C6.07116 6.91842 6.36445 6.79694 6.58069 6.58069C6.79694 6.36445 6.91842 6.07116 6.91842 5.76535C6.91842 5.45954 6.79694 5.16625 6.58069 4.95001C6.36445 4.73376 6.07116 4.61228 5.76535 4.61228Z" fill="white"/>
</svg>
