<svg width="40" height="40" viewBox="0 0 40 40" fill="none" xmlns="http://www.w3.org/2000/svg">
<path opacity="0.987" fill-rule="evenodd" clip-rule="evenodd" d="M18.0224 2.65285C19.8349 2.45035 20.9074 2.45035 22.8549 2.65285C26.3022 3.16309 29.4979 4.75656 31.9799 7.20285C30.3027 8.78819 28.6475 10.3967 27.0149 12.0279C23.8882 9.37785 20.3982 8.76619 16.5449 10.1929C13.7182 11.4929 11.7499 13.5995 10.6399 16.5129C8.82597 15.1624 7.0357 13.7806 5.26987 12.3679C5.14715 12.3033 5.00699 12.2796 4.86987 12.3004C7.67487 6.89202 12.0582 3.67535 18.0199 2.65035" fill="#F44336"/>
<path opacity="0.997" fill-rule="evenodd" clip-rule="evenodd" d="M4.8649 12.3C5.00656 12.2783 5.14073 12.3008 5.2674 12.3675C7.03323 13.7802 8.8235 15.162 10.6374 16.5125C10.352 17.6476 10.172 18.8067 10.0999 19.975C10.1616 21.105 10.3407 22.2141 10.6374 23.3025L4.9999 27.79C2.5449 22.66 2.4999 17.4966 4.8649 12.3Z" fill="#FFC107"/>
<path opacity="0.999" fill-rule="evenodd" clip-rule="evenodd" d="M31.7124 33.2258C29.9571 31.6778 28.1194 30.2257 26.2074 28.8758C28.1241 27.5225 29.2874 25.6658 29.6974 23.3058H20.3049V16.7833C25.7216 16.7383 31.1358 16.7842 36.5474 16.9208C37.5741 22.4958 36.3883 27.5225 32.9899 32.0008C32.5858 32.4304 32.1578 32.8392 31.7124 33.2258Z" fill="#448AFF"/>
<path opacity="0.993" fill-rule="evenodd" clip-rule="evenodd" d="M10.6375 23.3057C12.6875 28.4007 16.4458 30.779 21.9125 30.4407C23.4471 30.263 24.9184 29.7269 26.2075 28.8757C28.1208 30.229 29.9558 31.679 31.7125 33.2257C28.9291 35.7268 25.3803 37.2108 21.645 37.4357C20.7964 37.5035 19.9436 37.5035 19.095 37.4357C12.7317 36.6857 8.03333 33.4707 5 27.7907L10.6375 23.3057Z" fill="#43A047"/>
</svg>
