<svg width="42" height="48" viewBox="0 0 42 48" fill="none" xmlns="http://www.w3.org/2000/svg">
<path d="M33.1733 7.52C31.3509 5.43874 30.3464 2.7664 30.3467 0H22.1067V33.0667C22.0444 34.8565 21.2894 36.5522 20.0008 37.796C18.7123 39.0398 16.9909 39.7344 15.2 39.7333C11.4133 39.7333 8.26667 36.64 8.26667 32.8C8.26667 28.2133 12.6933 24.7733 17.2533 26.1867V17.76C8.05333 16.5333 0 23.68 0 32.8C0 41.68 7.36 48 15.1733 48C23.5467 48 30.3467 41.2 30.3467 32.8V16.0267C33.688 18.4263 37.6996 19.7137 41.8133 19.7067V11.4667C41.8133 11.4667 36.8 11.7067 33.1733 7.52Z" fill="white"/>
</svg>
