<svg width="30" height="24" viewBox="0 0 30 24" fill="none" xmlns="http://www.w3.org/2000/svg">
<path fill-rule="evenodd" clip-rule="evenodd" d="M15 0C16.2825 0 17.598 0.0330001 18.873 0.0870001L20.379 0.159L21.8205 0.2445L23.1705 0.336L24.4035 0.432C25.7418 0.533837 27.0012 1.10465 27.9599 2.0439C28.9187 2.98315 29.5152 4.23059 29.6445 5.5665L29.7045 6.204L29.817 7.569C29.922 8.9835 30 10.5255 30 12C30 13.4745 29.922 15.0165 29.817 16.431L29.7045 17.796L29.6445 18.4335C29.5152 19.7696 28.9184 21.0173 27.9594 21.9566C27.0003 22.8958 25.7405 23.4665 24.402 23.568L23.172 23.6625L21.822 23.7555L20.379 23.841L18.873 23.913C17.5827 23.9689 16.2915 23.9979 15 24C13.7085 23.9979 12.4173 23.9689 11.127 23.913L9.621 23.841L8.1795 23.7555L6.8295 23.6625L5.5965 23.568C4.25822 23.4662 2.9988 22.8953 2.04007 21.9561C1.08133 21.0168 0.484786 19.7694 0.3555 18.4335L0.2955 17.796L0.183 16.431C0.0687491 14.9567 0.00770946 13.4787 0 12C0 10.5255 0.078 8.9835 0.183 7.569L0.2955 6.204L0.3555 5.5665C0.484736 4.23083 1.08107 2.98358 2.03949 2.04436C2.99792 1.10514 4.25699 0.534175 5.595 0.432L6.8265 0.336L8.1765 0.2445L9.6195 0.159L11.1255 0.0870001C12.4163 0.0310908 13.708 0.00208437 15 0ZM12 8.3625V15.6375C12 16.3305 12.75 16.7625 13.35 16.4175L19.65 12.78C19.7871 12.7011 19.901 12.5874 19.9801 12.4505C20.0593 12.3136 20.101 12.1582 20.101 12C20.101 11.8418 20.0593 11.6864 19.9801 11.5495C19.901 11.4126 19.7871 11.2989 19.65 11.22L13.35 7.584C13.2131 7.50498 13.0579 7.4634 12.8999 7.46342C12.7418 7.46345 12.5866 7.50508 12.4497 7.58414C12.3129 7.6632 12.1993 7.7769 12.1204 7.9138C12.0414 8.0507 11.9999 8.20597 12 8.364V8.3625Z" fill="white"/>
</svg>
