<svg width="52" height="52" viewBox="0 0 52 52" fill="none" xmlns="http://www.w3.org/2000/svg">
<path d="M24.9166 6.5C30.3756 6.5 35.6111 8.66859 39.4712 12.5287C43.3313 16.3888 45.4999 21.6243 45.4999 27.0833C45.4999 32.5424 43.3313 37.7778 39.4712 41.6379C35.6111 45.4981 30.3756 47.6667 24.9166 47.6667C19.4575 47.6667 14.2221 45.4981 10.362 41.6379C6.50185 37.7778 4.33325 32.5424 4.33325 27.0833C4.33325 21.6243 6.50185 16.3888 10.362 12.5287C14.2221 8.66859 19.4575 6.5 24.9166 6.5ZM24.9166 8.66667C20.0322 8.66667 15.3478 10.607 11.894 14.0608C8.44024 17.5146 6.49992 22.1989 6.49992 27.0833C6.49992 31.9677 8.44024 36.6521 11.894 40.1059C15.3478 43.5597 20.0322 45.5 24.9166 45.5C27.3351 45.5 29.7299 45.0236 31.9643 44.0981C34.1988 43.1726 36.229 41.816 37.9391 40.1059C39.6493 38.3957 41.0058 36.3655 41.9314 34.1311C42.8569 31.8967 43.3333 29.5018 43.3333 27.0833C43.3333 22.1989 41.3929 17.5146 37.9391 14.0608C34.4853 10.607 29.801 8.66667 24.9166 8.66667ZM23.8333 15.1667H25.9999V26.91L36.1833 32.7817L35.0999 34.6667L23.8333 28.1667V15.1667Z" fill="white"/>
</svg>
