<svg width="416" height="279" viewBox="0 0 416 279" fill="none" xmlns="http://www.w3.org/2000/svg">
<rect width="250" height="250" rx="24" transform="matrix(0.83205 -0.5547 0.830139 0.557556 0 138.675)" fill="#999999"/>
<path d="M188.402 24.7323L36.9692 125.688C25.9405 133.04 25.92 144.992 36.9233 152.382L188.009 253.857C199.012 261.247 216.873 261.278 227.901 253.926L379.334 152.97C390.363 145.618 390.384 133.666 379.38 126.276L228.295 24.8008C217.292 17.4105 199.431 17.3798 188.402 24.7323Z" fill="#141414"/>
<mask id="mask0_596_6" style="mask-type:luminance" maskUnits="userSpaceOnUse" x="78" y="57" width="228" height="153">
<path d="M173.016 57.5118L78.4729 120.541L211.367 209.798L305.91 146.769L173.016 57.5118Z" fill="white"/>
</mask>
<g mask="url(#mask0_596_6)">
<path d="M192.681 192.689L137.893 104.434L148.841 97.1351L280.528 134.124L268.117 142.399L238.124 134.042L192.592 164.397L205.23 184.323L192.681 192.689ZM186.225 154.042L222.81 129.651L159.751 111.78L186.225 154.042Z" fill="white"/>
</g>
<mask id="mask1_596_6" style="mask-type:luminance" maskUnits="userSpaceOnUse" x="60" y="45" width="265" height="177">
<path d="M60.1414 132.572L191.198 45.2013L194.297 47.2828L63.2406 134.654L60.1414 132.572ZM191.191 49.3537L194.297 47.2828L202.197 52.5885L199.09 54.6594L191.191 49.3537ZM199.09 54.6594L202.197 52.5885L321.192 132.511L318.086 134.582L199.09 54.6594ZM63.2406 134.654L66.3469 132.583L193.242 217.811L190.136 219.882L63.2406 134.654ZM190.136 219.882L321.192 132.511L324.291 134.592L193.235 221.963L190.136 219.882Z" fill="white"/>
</mask>
<g mask="url(#mask1_596_6)">
<mask id="mask2_596_6" style="mask-type:luminance" maskUnits="userSpaceOnUse" x="59" y="44" width="267" height="179">
<path d="M191.343 44.9932L59.6895 132.762L193.685 222.759L325.339 134.99L191.343 44.9932Z" fill="white"/>
</mask>
<g mask="url(#mask2_596_6)">
<mask id="mask3_596_6" style="mask-type:luminance" maskUnits="userSpaceOnUse" x="60" y="45" width="265" height="177">
<path d="M60.1421 132.572L191.199 45.2013L194.298 47.2828L63.2413 134.654L60.1421 132.572ZM191.191 49.3537L194.298 47.2828L202.197 52.5885L199.091 54.6594L191.191 49.3537ZM199.091 54.6594L202.197 52.5885L321.193 132.511L318.086 134.582L199.091 54.6594ZM63.2413 134.654L66.3476 132.583L193.243 217.811L190.136 219.882L63.2413 134.654ZM190.136 219.882L321.193 132.511L324.292 134.592L193.236 221.963L190.136 219.882Z" fill="white"/>
</mask>
<g mask="url(#mask3_596_6)">
<path d="M60.1421 132.572L191.043 45.3049L324.137 134.696L193.236 221.963L60.1421 132.572Z" fill="white"/>
</g>
</g>
</g>
<mask id="mask4_596_6" style="mask-type:luminance" maskUnits="userSpaceOnUse" x="191" y="48" width="69" height="46">
<path d="M191.782 64.1367L215.03 48.6381L259.328 78.3904L236.08 93.889L191.782 64.1367Z" fill="white"/>
</mask>
<g mask="url(#mask4_596_6)">
<path d="M191.253 63.7856L214.501 48.287L259.344 78.4052L236.096 93.9038L191.253 63.7856Z" fill="#181818"/>
</g>
<mask id="mask5_596_6" style="mask-type:luminance" maskUnits="userSpaceOnUse" x="191" y="48" width="69" height="46">
<path d="M214.501 48.2875L191.253 63.7861L236.096 93.9043L259.344 78.4057L214.501 48.2875Z" fill="white"/>
</mask>
<g mask="url(#mask5_596_6)">
<path d="M228.393 88.5889L223.6 85.3694L225.391 69.9992C225.476 68.7167 225.354 67.6276 225.025 66.7412C224.702 65.8501 224.09 65.097 223.181 64.4864C221.951 63.6608 220.559 63.2616 219.004 63.2889C217.453 63.3185 216.015 63.7705 214.7 64.6472C213.353 65.5446 212.697 66.5493 212.722 67.6612C212.748 68.764 213.505 69.8496 214.992 70.9225L208.779 75.0643C205.522 72.7656 203.923 70.3383 203.993 67.7847C204.053 65.2287 205.725 62.8508 209.011 60.6603C211.154 59.2314 213.431 58.2479 215.842 57.7099C218.26 57.1673 220.649 57.0769 223 57.4362C225.35 57.7863 227.5 58.6112 229.436 59.911C231.088 61.0212 232.341 62.4167 233.193 64.0976C234.045 65.7785 234.3 67.8667 233.955 70.3553L233.211 77.4317L244.96 69.5991L250.897 73.5864L228.393 88.5889Z" fill="white"/>
</g>
<mask id="mask6_596_6" style="mask-type:luminance" maskUnits="userSpaceOnUse" x="191" y="130" width="165" height="110">
<path d="M331.53 130.879L191.925 223.949L215.726 239.936L355.332 146.865L331.53 130.879Z" fill="white"/>
</mask>
<g mask="url(#mask6_596_6)">
<path d="M210.871 233.964L200.196 226.794L204.379 224.005C205.242 223.43 206.156 223.037 207.111 222.829C208.06 222.616 208.994 222.587 209.925 222.741C210.852 222.897 211.71 223.238 212.488 223.761C213.259 224.279 213.765 224.854 214.002 225.48C214.228 226.103 214.186 226.73 213.861 227.362C213.539 227.996 212.942 228.601 212.079 229.177L210.325 230.346L213.301 232.344L210.871 233.964ZM208.218 228.949L209.792 227.899C210.427 227.476 210.769 227.054 210.814 226.628C210.85 226.199 210.592 225.794 210.031 225.417C209.473 225.043 208.866 224.866 208.225 224.888C207.58 224.913 206.942 225.135 206.307 225.559L204.733 226.608L208.218 228.949Z" fill="white"/>
<path d="M225.013 224.538L214.338 217.368L218.908 214.322C219.726 213.776 220.582 213.404 221.475 213.2C222.368 213.001 223.247 212.977 224.123 213.131C225.005 213.28 225.829 213.611 226.59 214.123C227.371 214.648 227.867 215.221 228.076 215.842C228.285 216.453 228.212 217.069 227.852 217.687L233.766 218.703L230.964 220.571L225.725 219.621L224.124 220.688L227.443 222.918L225.013 224.538ZM222.044 219.328L223.894 218.095C224.491 217.697 224.812 217.298 224.861 216.897C224.9 216.494 224.662 216.117 224.146 215.77C223.633 215.426 223.075 215.268 222.478 215.297C221.871 215.323 221.268 215.532 220.671 215.93L218.821 217.164L222.044 219.328Z" fill="white"/>
<path d="M245.04 211.464C243.925 212.208 242.7 212.711 241.369 212.971C240.045 213.228 238.721 213.239 237.397 213.002C236.084 212.762 234.885 212.275 233.801 211.547C232.709 210.813 231.986 210.009 231.64 209.135C231.293 208.25 231.312 207.362 231.699 206.477C232.087 205.583 232.837 204.76 233.951 204.017C235.063 203.276 236.291 202.78 237.622 202.529C238.946 202.272 240.27 202.265 241.594 202.498C242.917 202.722 244.126 203.202 245.218 203.935C246.303 204.664 247.015 205.474 247.351 206.366C247.698 207.254 247.679 208.138 247.292 209.023C246.904 209.908 246.151 210.724 245.04 211.464ZM236.272 209.899C236.905 210.325 237.608 210.612 238.38 210.761C239.145 210.905 239.9 210.909 240.656 210.774C241.411 210.63 242.104 210.343 242.739 209.919C243.374 209.496 243.799 209.038 244.01 208.538C244.222 208.028 244.219 207.523 243.999 207.015C243.779 206.498 243.353 206.026 242.719 205.601C242.079 205.171 241.376 204.883 240.611 204.739C239.856 204.592 239.098 204.587 238.335 204.726C237.58 204.861 236.887 205.139 236.252 205.562C235.617 205.985 235.192 206.453 234.981 206.963C234.776 207.467 234.782 207.975 234.992 208.485C235.205 208.998 235.631 209.469 236.272 209.899Z" fill="white"/>
<path d="M256.463 203.573L245.788 196.403L249.971 193.614C250.834 193.039 251.748 192.646 252.704 192.438C253.652 192.225 254.587 192.196 255.517 192.35C256.444 192.506 257.302 192.847 258.08 193.37C258.852 193.888 259.357 194.463 259.594 195.089C259.821 195.712 259.778 196.339 259.453 196.971C259.131 197.605 258.534 198.21 257.671 198.786L255.918 199.954L258.893 201.953L256.463 203.573ZM253.81 198.557L255.384 197.508C256.019 197.085 256.361 196.663 256.407 196.237C256.442 195.807 256.184 195.403 255.623 195.026C255.065 194.652 254.458 194.475 253.817 194.497C253.172 194.522 252.534 194.744 251.899 195.168L250.325 196.217L253.81 198.557Z" fill="white"/>
<path d="M270.605 194.142L259.93 186.973L266.957 182.288L268.996 183.657L264.385 186.731L266.602 188.221L270.799 185.423L272.824 186.783L268.627 189.581L270.969 191.153L275.746 187.969L277.798 189.347L270.605 194.142Z" fill="white"/>
<path d="M283.843 185.317L273.168 178.147L277.737 175.1C278.555 174.555 279.411 174.183 280.304 173.979C281.198 173.78 282.077 173.756 282.952 173.91C283.835 174.059 284.658 174.39 285.419 174.901C286.201 175.426 286.696 175.999 286.905 176.62C287.115 177.232 287.041 177.848 286.682 178.465L292.596 179.481L289.793 181.35L284.554 180.4L282.953 181.467L286.273 183.697L283.843 185.317ZM280.873 180.107L282.723 178.874C283.32 178.476 283.641 178.077 283.69 177.676C283.729 177.272 283.492 176.896 282.975 176.549C282.462 176.204 281.904 176.047 281.307 176.075C280.701 176.102 280.097 176.311 279.5 176.709L277.65 177.942L280.873 180.107Z" fill="white"/>
<path d="M301.153 173.78L292.751 168.136L289.354 170.4L287.082 168.874L296.304 162.726L298.577 164.252L295.18 166.516L303.583 172.16L301.153 173.78Z" fill="white"/>
<path d="M312.694 166.085L302.019 158.915L304.448 157.295L315.123 164.465L312.694 166.085Z" fill="white"/>
<path d="M321.669 160.101L310.994 152.931L318.021 148.246L320.06 149.616L315.449 152.69L317.666 154.179L321.863 151.381L323.888 152.741L319.691 155.539L322.033 157.112L326.81 153.927L328.862 155.306L321.669 160.101Z" fill="white"/>
<path d="M338.843 148.925C337.949 149.521 337.028 149.937 336.083 150.176C335.145 150.409 334.231 150.461 333.339 150.328C332.446 150.199 331.636 149.887 330.899 149.392L333.274 147.809C333.78 148.149 334.349 148.299 334.983 148.254C335.628 148.207 336.242 147.987 336.832 147.593C337.336 147.257 337.64 146.926 337.744 146.598C337.848 146.262 337.724 145.975 337.373 145.739C336.998 145.487 336.515 145.403 335.926 145.488C335.329 145.567 334.567 145.804 333.649 146.194C332.131 146.852 330.803 147.202 329.662 147.249C328.521 147.286 327.521 147.012 326.657 146.431C325.676 145.772 325.256 145.02 325.406 144.169C325.566 143.315 326.257 142.477 327.493 141.653C328.338 141.089 329.218 140.701 330.129 140.486C331.039 140.261 331.925 140.21 332.79 140.333C333.652 140.459 334.444 140.761 335.161 141.242L332.827 142.797C332.352 142.478 331.818 142.336 331.229 142.37C330.639 142.394 330.063 142.594 329.504 142.967C328.996 143.305 328.699 143.641 328.606 143.971C328.502 144.298 328.629 144.578 328.977 144.811C329.307 145.033 329.748 145.117 330.3 145.054C330.852 144.981 331.628 144.74 332.632 144.329C334.277 143.651 335.664 143.293 336.784 143.256C337.905 143.21 338.891 143.47 339.734 144.036C340.747 144.716 341.166 145.492 340.999 146.364C340.832 147.226 340.113 148.079 338.843 148.925Z" fill="white"/>
</g>
</svg>
