<svg width="359" height="241" viewBox="0 0 359 241" fill="none" xmlns="http://www.w3.org/2000/svg">
<path d="M139.749 18.8073L28.2543 93.1371C9.42718 105.689 0.0136087 111.964 0.000174753 119.783C-0.0132592 127.601 9.37869 133.909 28.1626 146.525L139.401 221.238C158.185 233.854 167.577 240.162 179.261 240.182C190.946 240.202 200.359 233.926 219.186 221.375L330.681 147.045C349.508 134.494 358.922 128.218 358.935 120.4C358.949 112.581 349.557 106.273 330.773 93.6569L219.534 18.9444C200.75 6.3283 191.358 0.0202713 179.674 0.000193576C167.99 -0.0198842 158.576 6.25584 139.749 18.8073Z" fill="#141414"/>
</svg>
