<svg width="13" height="13" viewBox="0 0 13 13" fill="none" xmlns="http://www.w3.org/2000/svg">
<path d="M8.89971 5.2999C9.56245 5.2999 10.0997 4.76264 10.0997 4.0999C10.0997 3.43716 9.56245 2.8999 8.89971 2.8999C8.23697 2.8999 7.69971 3.43716 7.69971 4.0999C7.69971 4.76264 8.23697 5.2999 8.89971 5.2999Z" stroke="#141414"/>
<path d="M0.5 6.80042L1.5512 5.88062C1.81468 5.65027 2.15585 5.52863 2.50563 5.54032C2.85542 5.55202 3.1877 5.69618 3.4352 5.94362L6.0092 8.51762C6.20894 8.71733 6.47273 8.84017 6.75413 8.86454C7.03553 8.8889 7.3165 8.81322 7.5476 8.65082L7.727 8.52482C8.06036 8.2907 8.46327 8.17657 8.86989 8.20109C9.27652 8.22561 9.6628 8.38733 9.9656 8.65982L11.9 10.4004" stroke="#141414" stroke-linecap="round"/>
<path d="M12.5 6.5C12.5 9.3284 12.5 10.7426 11.621 11.621C10.7432 12.5 9.3284 12.5 6.5 12.5C3.6716 12.5 2.2574 12.5 1.3784 11.621C0.5 10.7432 0.5 9.3284 0.5 6.5C0.5 3.6716 0.5 2.2574 1.3784 1.3784C2.258 0.5 3.6716 0.5 6.5 0.5C9.3284 0.5 10.7426 0.5 11.621 1.3784C12.2054 1.9628 12.401 2.7842 12.467 4.1" stroke="#141414" stroke-linecap="round"/>
</svg>
